<?xml version="1.0" encoding="UTF-8" standalone="no"?><svg xmlns="http://www.w3.org/2000/svg" xmlns:xlink="http://www.w3.org/1999/xlink" contentScriptType="application/ecmascript" contentStyleType="text/css" height="552px" preserveAspectRatio="none" style="width:1225px;height:552px;" version="1.1" viewBox="0 0 1225 552" width="1225px" zoomAndPan="magnify"><defs><filter height="300%" id="f95hs0294bvax" width="300%" x="-1" y="-1"><feGaussianBlur result="blurOut" stdDeviation="2.0"/><feColorMatrix in="blurOut" result="blurOut2" type="matrix" values="0 0 0 0 0 0 0 0 0 0 0 0 0 0 0 0 0 0 .4 0"/><feOffset dx="4.0" dy="4.0" in="blurOut2" result="blurOut3"/><feBlend in="SourceGraphic" in2="blurOut3" mode="normal"/></filter></defs><g><text fill="#000000" font-family="sans-serif" font-size="18" lengthAdjust="spacingAndGlyphs" textLength="298" x="469.5" y="16.708">Diagrama de componentes · SIGA</text><!--MD5=[eeac6d26af6e255ad00712f50927ffda]
cluster Cliente--><polygon fill="#FFFFFF" filter="url(#f95hs0294bvax)" points="345,44.9531,406,44.9531,413,67.25,495,67.25,495,131.9531,345,131.9531,345,44.9531" style="stroke: #000000; stroke-width: 1.5;"/><line style="stroke: #000000; stroke-width: 1.5;" x1="345" x2="413" y1="67.25" y2="67.25"/><text fill="#000000" font-family="sans-serif" font-size="14" font-weight="bold" lengthAdjust="spacingAndGlyphs" textLength="55" x="349" y="59.9482">Cliente</text><!--MD5=[915955633241d16126043e8079b7cf89]
cluster Plataforma SIGA--><polygon fill="#FFFFFF" filter="url(#f95hs0294bvax)" points="22,180.9531,154,180.9531,161,203.25,680,203.25,680,540.9531,22,540.9531,22,180.9531" style="stroke: #000000; stroke-width: 1.5;"/><line style="stroke: #000000; stroke-width: 1.5;" x1="22" x2="161" y1="203.25" y2="203.25"/><text fill="#000000" font-family="sans-serif" font-size="14" font-weight="bold" lengthAdjust="spacingAndGlyphs" textLength="126" x="26" y="195.9482">Plataforma SIGA</text><!--MD5=[a417a7767f23433f4cb99642d6a1cfee]
cluster Infraestructura de campo--><polygon fill="#FFFFFF" filter="url(#f95hs0294bvax)" points="519,44.9531,726,44.9531,733,67.25,736,67.25,736,131.9531,519,131.9531,519,44.9531" style="stroke: #000000; stroke-width: 1.5;"/><line style="stroke: #000000; stroke-width: 1.5;" x1="519" x2="733" y1="67.25" y2="67.25"/><text fill="#000000" font-family="sans-serif" font-size="14" font-weight="bold" lengthAdjust="spacingAndGlyphs" textLength="201" x="523" y="59.9482">Infraestructura de campo</text><!--MD5=[9c7066f422ada1e89d7088421cf5089b]
cluster Sistemas externos--><polygon fill="#FFFFFF" filter="url(#f95hs0294bvax)" points="704,329.9531,857,329.9531,864,352.25,1203,352.25,1203,416.9531,704,416.9531,704,329.9531" style="stroke: #000000; stroke-width: 1.5;"/><line style="stroke: #000000; stroke-width: 1.5;" x1="704" x2="864" y1="352.25" y2="352.25"/><text fill="#000000" font-family="sans-serif" font-size="14" font-weight="bold" lengthAdjust="spacingAndGlyphs" textLength="147" x="708" y="344.9482">Sistemas externos</text><!--MD5=[194a92f280a7d2c2f105939ff984a7cf]
entity Frontend--><rect fill="#FEFECE" filter="url(#f95hs0294bvax)" height="36.2969" style="stroke: #A80036; stroke-width: 1.5;" width="118" x="361" y="79.9531"/><rect fill="#FEFECE" height="5" style="stroke: #A80036; stroke-width: 1.5;" width="10" x="356" y="84.9531"/><rect fill="#FEFECE" height="5" style="stroke: #A80036; stroke-width: 1.5;" width="10" x="356" y="106.25"/><text fill="#000000" font-family="sans-serif" font-size="14" lengthAdjust="spacingAndGlyphs" textLength="98" x="371" y="102.9482">Frontend Web</text><!--MD5=[645d8587175d8f7ad110cd370775931d]
entity API--><rect fill="#FEFECE" filter="url(#f95hs0294bvax)" height="36.2969" style="stroke: #A80036; stroke-width: 1.5;" width="82" x="464" y="215.9531"/><rect fill="#FEFECE" height="5" style="stroke: #A80036; stroke-width: 1.5;" width="10" x="459" y="220.9531"/><rect fill="#FEFECE" height="5" style="stroke: #A80036; stroke-width: 1.5;" width="10" x="459" y="242.25"/><text fill="#000000" font-family="sans-serif" font-size="14" lengthAdjust="spacingAndGlyphs" textLength="62" x="474" y="238.9482">API REST</text><!--MD5=[c26fb13a5bfd859e152eeb806be4b1ba]
entity IA--><rect fill="#FEFECE" filter="url(#f95hs0294bvax)" height="36.2969" style="stroke: #A80036; stroke-width: 1.5;" width="166" x="38" y="364.9531"/><rect fill="#FEFECE" height="5" style="stroke: #A80036; stroke-width: 1.5;" width="10" x="33" y="369.9531"/><rect fill="#FEFECE" height="5" style="stroke: #A80036; stroke-width: 1.5;" width="10" x="33" y="391.25"/><text fill="#000000" font-family="sans-serif" font-size="14" lengthAdjust="spacingAndGlyphs" textLength="146" x="48" y="387.9482">Servicio de Análisis IA</text><!--MD5=[0bfacbc8c9dd9676d3932b87545ca42d]
entity Notif--><rect fill="#FEFECE" filter="url(#f95hs0294bvax)" height="36.2969" style="stroke: #A80036; stroke-width: 1.5;" width="195" x="239.5" y="364.9531"/><rect fill="#FEFECE" height="5" style="stroke: #A80036; stroke-width: 1.5;" width="10" x="234.5" y="369.9531"/><rect fill="#FEFECE" height="5" style="stroke: #A80036; stroke-width: 1.5;" width="10" x="234.5" y="391.25"/><text fill="#000000" font-family="sans-serif" font-size="14" lengthAdjust="spacingAndGlyphs" textLength="175" x="249.5" y="387.9482">Servicio de Notificaciones</text><!--MD5=[c97c613dbfcfa94bb180f2ce6d0b4cfd]
entity BD--><path d="M348,489.9531 C348,479.9531 409,479.9531 409,479.9531 C409,479.9531 470,479.9531 470,489.9531 L470,515.25 C470,525.25 409,525.25 409,525.25 C409,525.25 348,525.25 348,515.25 L348,489.9531 " fill="#FEFECE" filter="url(#f95hs0294bvax)" style="stroke: #000000; stroke-width: 1.5;"/><path d="M348,489.9531 C348,499.9531 409,499.9531 409,499.9531 C409,499.9531 470,499.9531 470,489.9531 " fill="none" style="stroke: #000000; stroke-width: 1.5;"/><text fill="#000000" font-family="sans-serif" font-size="14" lengthAdjust="spacingAndGlyphs" textLength="102" x="358" y="516.9482">Base de Datos</text><!--MD5=[49cbbb1648246ecd0e2d56eda0c19f08]
entity Gateway--><rect fill="#FEFECE" filter="url(#f95hs0294bvax)" height="36.2969" style="stroke: #A80036; stroke-width: 1.5;" width="104" x="535" y="79.9531"/><rect fill="#FEFECE" height="5" style="stroke: #A80036; stroke-width: 1.5;" width="10" x="530" y="84.9531"/><rect fill="#FEFECE" height="5" style="stroke: #A80036; stroke-width: 1.5;" width="10" x="530" y="106.25"/><text fill="#000000" font-family="sans-serif" font-size="14" lengthAdjust="spacingAndGlyphs" textLength="84" x="545" y="102.9482">Gateway IoT</text><!--MD5=[6f56ec150aee665bcfe59d706468ab7b]
entity Horario--><rect fill="#FEFECE" filter="url(#f95hs0294bvax)" height="36.2969" style="stroke: #A80036; stroke-width: 1.5;" width="230" x="720" y="364.9531"/><rect fill="#FEFECE" height="5" style="stroke: #A80036; stroke-width: 1.5;" width="10" x="715" y="369.9531"/><rect fill="#FEFECE" height="5" style="stroke: #A80036; stroke-width: 1.5;" width="10" x="715" y="391.25"/><text fill="#000000" font-family="sans-serif" font-size="14" lengthAdjust="spacingAndGlyphs" textLength="210" x="730" y="387.9482">Sistema de Horario Académico</text><!--MD5=[962dd4466b8b9fecb56b4ca25d27e02b]
entity Video--><rect fill="#FEFECE" filter="url(#f95hs0294bvax)" height="36.2969" style="stroke: #A80036; stroke-width: 1.5;" width="201" x="985.5" y="364.9531"/><rect fill="#FEFECE" height="5" style="stroke: #A80036; stroke-width: 1.5;" width="10" x="980.5" y="369.9531"/><rect fill="#FEFECE" height="5" style="stroke: #A80036; stroke-width: 1.5;" width="10" x="980.5" y="391.25"/><text fill="#000000" font-family="sans-serif" font-size="14" lengthAdjust="spacingAndGlyphs" textLength="181" x="995.5" y="387.9482">Sistema de Videovigilancia</text><!--MD5=[8300d6f31da3a6901c7e03210cc4c0c1]
link Frontend to API--><path d="M419.17,116.2131 C419.22,130.1431 420.97,149.8331 429,164.9531 C439.25,184.2531 457.27,200.7431 473.2,212.6531 " fill="none" id="Frontend-&gt;API" style="stroke: #A80036; stroke-width: 1.0;"/><polygon fill="#A80036" points="477.63,215.8831,472.7076,207.3526,473.5876,212.9406,467.9996,213.8205,477.63,215.8831" style="stroke: #A80036; stroke-width: 1.0;"/><text fill="#000000" font-family="sans-serif" font-size="13" lengthAdjust="spacingAndGlyphs" textLength="109" x="430" y="161.02">HTTPS / API REST</text><!--MD5=[51d7dd5021ac1b0651fb7a0ed4405357]
link API to BD--><path d="M505.6,252.1531 C505.77,268.3331 505.01,293.1031 500,313.9531 C485.24,375.4031 448.26,440.2831 426.25,475.3031 " fill="none" id="API-&gt;BD" style="stroke: #A80036; stroke-width: 1.0;"/><polygon fill="#A80036" points="423.38,479.8431,431.5686,474.3707,426.0505,475.616,424.8052,470.0979,423.38,479.8431" style="stroke: #A80036; stroke-width: 1.0;"/><text fill="#000000" font-family="sans-serif" font-size="13" lengthAdjust="spacingAndGlyphs" textLength="157" x="498" y="380.02">lecturas, tickets, alertas,</text><text fill="#000000" font-family="sans-serif" font-size="13" lengthAdjust="spacingAndGlyphs" textLength="116" x="518.5" y="395.1528">usuarios, reportes</text><!--MD5=[404a2c6c3d4910f5a76c0c8607c5ad90]
link API to IA--><path d="M463.97,237.4031 C413.98,241.5931 327.82,252.7531 260,281.9531 C214.38,301.5931 169.11,338.1831 143.16,361.2431 " fill="none" id="API-&gt;IA" style="stroke: #A80036; stroke-width: 1.0;"/><polygon fill="#A80036" points="139.16,364.8231,148.5377,361.8134,142.8899,361.4933,143.2101,355.8455,139.16,364.8231" style="stroke: #A80036; stroke-width: 1.0;"/><text fill="#000000" font-family="sans-serif" font-size="13" lengthAdjust="spacingAndGlyphs" textLength="107" x="261" y="302.52">solicitarAnalisis()</text><!--MD5=[d10afb7ecd6f683943329a17034990dc]
link IA to BD--><path d="M162.88,401.0431 C212.57,421.3131 295.7,455.2331 351.42,477.9631 " fill="none" id="IA-&gt;BD" style="stroke: #A80036; stroke-width: 1.0;"/><polygon fill="#A80036" points="356.06,479.8531,349.2344,472.7531,351.4295,477.9666,346.216,480.1618,356.06,479.8531" style="stroke: #A80036; stroke-width: 1.0;"/><text fill="#000000" font-family="sans-serif" font-size="13" lengthAdjust="spacingAndGlyphs" textLength="125" x="283" y="446.02">consultarHistorico()</text><!--MD5=[0d90ec1b42c3267e9d6bb2768e73ccfb]
link API to Notif--><path d="M463.62,249.2431 C445,257.0031 423.55,267.9131 407,281.9531 C380.9,304.0931 359.87,338.1031 347.9,360.1931 " fill="none" id="API-&gt;Notif" style="stroke: #A80036; stroke-width: 1.0;"/><polygon fill="#A80036" points="345.49,364.7131,353.2425,358.6386,347.834,360.2966,346.1761,354.8882,345.49,364.7131" style="stroke: #A80036; stroke-width: 1.0;"/><text fill="#000000" font-family="sans-serif" font-size="13" lengthAdjust="spacingAndGlyphs" textLength="87" x="408" y="302.52">enviarAlerta()</text><!--MD5=[ffcd009dc88c19e2b9e4f17c6a8b05f9]
link Gateway to API--><path d="M576.45,116.1931 C561.56,140.5231 534.42,184.8831 518.21,211.3631 " fill="none" id="Gateway-&gt;API" style="stroke: #A80036; stroke-width: 1.0;"/><polygon fill="#A80036" points="515.51,215.7731,523.6283,210.197,518.1265,211.5124,516.8111,206.0106,515.51,215.7731" style="stroke: #A80036; stroke-width: 1.0;"/><text fill="#000000" font-family="sans-serif" font-size="13" lengthAdjust="spacingAndGlyphs" textLength="103" x="556" y="161.02">MQTT / API REST</text><!--MD5=[bd973ab95dea12874c647e80b2edd7b9]
link API to Horario--><path d="M543.18,251.9631 C605.14,279.5631 727.2,333.9331 792.09,362.8331 " fill="none" id="API-&gt;Horario" style="stroke: #A80036; stroke-width: 1.0;"/><polygon fill="#A80036" points="796.66,364.8731,790.0645,357.5588,792.0921,362.8398,786.8111,364.8674,796.66,364.8731" style="stroke: #A80036; stroke-width: 1.0;"/><text fill="#000000" font-family="sans-serif" font-size="13" lengthAdjust="spacingAndGlyphs" textLength="165" x="680" y="302.52">consultarHorarioVigente()</text><!--MD5=[50c6e8edca8034a28b0184ec472614a1]
link API to Video--><path d="M546.07,237.7631 C611.82,242.8631 744.47,255.6531 854,281.9531 C906.21,294.4931 918.63,300.8531 968,321.9531 C996.33,334.0631 1027.35,349.9431 1050.47,362.3231 " fill="none" id="API-&gt;Video" style="stroke: #A80036; stroke-width: 1.0; stroke-dasharray: 7.0,7.0;"/><polygon fill="#A80036" points="1054.99,364.7531,1048.9456,356.9772,1050.5826,362.392,1045.1678,364.0291,1054.99,364.7531" style="stroke: #A80036; stroke-width: 1.0;"/><text fill="#000000" font-family="sans-serif" font-size="13" lengthAdjust="spacingAndGlyphs" textLength="180" x="950" y="295.02">integración complementaria</text><text fill="#000000" font-family="sans-serif" font-size="13" lengthAdjust="spacingAndGlyphs" textLength="93" x="993.5" y="310.1528">(RF-06, RD-05)</text><!--MD5=[4a83d61d875aadb689a417a8713c8d41]
@startuml component_sistema
title Diagrama de componentes · SIGA

package "Cliente" {
  [Frontend Web] as Frontend
}

package "Plataforma SIGA" {
  [API REST] as API
  [Servicio de Análisis IA] as IA
  [Servicio de Notificaciones] as Notif
  database "Base de Datos" as BD
}

package "Infraestructura de campo" {
  [Gateway IoT] as Gateway
}

package "Sistemas externos" {
  [Sistema de Horario Académico] as Horario
  [Sistema de Videovigilancia] as Video
}

Frontend - -> API : HTTPS / API REST
API - -> BD : lecturas, tickets, alertas,\nusuarios, reportes
API - -> IA : solicitarAnalisis()
IA - -> BD : consultarHistorico()
API - -> Notif : enviarAlerta()
Gateway - -> API : MQTT / API REST
API - -> Horario : consultarHorarioVigente()
API ..> Video : integración complementaria\n(RF-06, RD-05)

@enduml

PlantUML version 1.2020.02(Sun Mar 01 10:22:07 UTC 2020)
(GPL source distribution)
Java Runtime: OpenJDK Runtime Environment
JVM: OpenJDK 64-Bit Server VM
Java Version: 21.0.11+10-1-24.04.2-Ubuntu
Operating System: Linux
Default Encoding: UTF-8
Language: en
Country: US
--></g></svg>