<?xml version="1.0" encoding="UTF-8" standalone="no"?><svg xmlns="http://www.w3.org/2000/svg" xmlns:xlink="http://www.w3.org/1999/xlink" contentScriptType="application/ecmascript" contentStyleType="text/css" height="831px" preserveAspectRatio="none" style="width:777px;height:831px;" version="1.1" viewBox="0 0 777 831" width="777px" zoomAndPan="magnify"><defs><filter height="300%" id="f147o6eghd2ka4" width="300%" x="-1" y="-1"><feGaussianBlur result="blurOut" stdDeviation="2.0"/><feColorMatrix in="blurOut" result="blurOut2" type="matrix" values="0 0 0 0 0 0 0 0 0 0 0 0 0 0 0 0 0 0 .4 0"/><feOffset dx="4.0" dy="4.0" in="blurOut2" result="blurOut3"/><feBlend in="SourceGraphic" in2="blurOut3" mode="normal"/></filter></defs><g><text fill="#000000" font-family="sans-serif" font-size="18" lengthAdjust="spacingAndGlyphs" textLength="463" x="156" y="16.708">Diagrama i* de Dependencia Estratégica (SD) · SIGA</text><!--MD5=[9549657f2502796ea7151c7e3439a975]
entity Docente--><ellipse cx="301" cy="57.9531" fill="#FEFECE" filter="url(#f147o6eghd2ka4)" rx="8" ry="8" style="stroke: #A80036; stroke-width: 2.0;"/><text fill="#000000" font-family="sans-serif" font-size="14" lengthAdjust="spacingAndGlyphs" textLength="60" x="271" y="87.9482">Docente</text><!--MD5=[bafe3fb0278b06d22ade6b2ca7019227]
entity Infra--><ellipse cx="237" cy="386.9531" fill="#FEFECE" filter="url(#f147o6eghd2ka4)" rx="8" ry="8" style="stroke: #A80036; stroke-width: 2.0;"/><text fill="#000000" font-family="sans-serif" font-size="14" lengthAdjust="spacingAndGlyphs" textLength="82" x="181.5" y="416.9482">Personal de</text><text fill="#000000" font-family="sans-serif" font-size="14" lengthAdjust="spacingAndGlyphs" textLength="111" x="181.5" y="433.2451">Infraestructura y</text><text fill="#000000" font-family="sans-serif" font-size="14" lengthAdjust="spacingAndGlyphs" textLength="103" x="181.5" y="449.542">Mantenimiento</text><!--MD5=[5a0df4b30c48d9c58cb1412616bdba0b]
entity SIGA--><ellipse cx="364" cy="677.9531" fill="#FEFECE" filter="url(#f147o6eghd2ka4)" rx="8" ry="8" style="stroke: #A80036; stroke-width: 2.0;"/><text fill="#000000" font-family="sans-serif" font-size="14" lengthAdjust="spacingAndGlyphs" textLength="32" x="348" y="707.9482">SIGA</text><!--MD5=[43cc0db2793cda597e75fdde5d4e866d]
entity Autoridades--><ellipse cx="493" cy="386.9531" fill="#FEFECE" filter="url(#f147o6eghd2ka4)" rx="8" ry="8" style="stroke: #A80036; stroke-width: 2.0;"/><text fill="#000000" font-family="sans-serif" font-size="14" lengthAdjust="spacingAndGlyphs" textLength="105" x="440.5" y="416.9482">Autoridades de</text><text fill="#000000" font-family="sans-serif" font-size="14" lengthAdjust="spacingAndGlyphs" textLength="73" x="440.5" y="433.2451">la Facultad</text><!--MD5=[ba188e4ceffebbe07bfd2fa707094214]
entity TI--><ellipse cx="679" cy="386.9531" fill="#FEFECE" filter="url(#f147o6eghd2ka4)" rx="8" ry="8" style="stroke: #A80036; stroke-width: 2.0;"/><text fill="#000000" font-family="sans-serif" font-size="14" lengthAdjust="spacingAndGlyphs" textLength="98" x="630" y="416.9482">Personal de TI</text><ellipse cx="236.7618" cy="188.4595" fill="#E8DAEF" filter="url(#f147o6eghd2ka4)" rx="74.2618" ry="24.5064" style="stroke: #7D3C98; stroke-width: 1.5;"/><text fill="#000000" font-family="sans-serif" font-size="14" lengthAdjust="spacingAndGlyphs" textLength="108" x="182.7618" y="187.223">Clima y equipos</text><text fill="#000000" font-family="sans-serif" font-size="14" lengthAdjust="spacingAndGlyphs" textLength="72" x="200.7618" y="203.5198">operativos</text><!--MD5=[423859321b02fb764742e96c7e691a59]
entity R1--><rect fill="#D5F5E3" filter="url(#f147o6eghd2ka4)" height="52.5938" style="stroke: #1D6B36; stroke-width: 1.5;" width="125" x="301.5" y="242.9531"/><text fill="#000000" font-family="sans-serif" font-size="14" lengthAdjust="spacingAndGlyphs" textLength="105" x="311.5" y="265.9482">Estado del aula</text><text fill="#000000" font-family="sans-serif" font-size="14" lengthAdjust="spacingAndGlyphs" textLength="99" x="311.5" y="282.2451">en tiempo real</text><!--MD5=[fdba6e7774e828d7bdf93a3c3efba6ce]
entity R2--><rect fill="#D5F5E3" filter="url(#f147o6eghd2ka4)" height="52.5938" style="stroke: #1D6B36; stroke-width: 1.5;" width="152" x="6" y="529.9531"/><text fill="#000000" font-family="sans-serif" font-size="14" lengthAdjust="spacingAndGlyphs" textLength="132" x="16" y="552.9482">Datos de sensores</text><text fill="#000000" font-family="sans-serif" font-size="14" lengthAdjust="spacingAndGlyphs" textLength="99" x="16" y="569.2451">en tiempo real</text><!--MD5=[98ca983366e55d91d4b1c64e19464055]
entity SG1--><path d="M426.1999,533.8193 C430.6318,527.4806 434.8736,527.8059 438.311,534.7276 C440.8787,529.1893 445.6572,528.5817 449.2953,533.6154 C452.2283,527.9727 455.924,528.1664 460.0487,532.3052 C463.352,526.3717 467.5216,527.439 470.9593,532.1677 C475.0173,527.3585 480.8681,526.2429 483.6266,533.5287 C486.4822,528.186 489.5709,528.5931 493.011,532.9641 C496.8369,527.3213 502.7503,528.262 505.8751,533.7727 C508.5997,529.2681 513.2758,527.9083 516.3555,533.4005 C520.111,527.9615 524.4667,528.6239 528.0908,533.5493 C531.2769,527.8953 535.717,527.5747 539.8154,532.5422 C543.8378,528.0497 548.6236,529.6035 550.5178,534.8749 C553.6655,528.284 557.5046,528.7359 561.9871,533.5303 C569.1216,534.6045 570.2051,540.2918 566.1392,545.3129 C573.906,545.9908 575.5461,550.7074 571.3706,556.8164 C575.5773,562.765 574.7441,567.3096 567.1409,569.2361 C571.2102,574.7233 570.609,580.7979 562.4681,581.7116 C558.1509,587.9802 553.3414,587.2052 549.9327,580.8121 C547.2246,587.439 543.7161,587.9161 538.5492,583.302 C535.3995,587.6741 530.8844,588.1323 528.0558,582.9493 C525.3993,588.1471 521.557,588.3991 517.8569,584.0661 C514.671,590.4027 509.7916,590.0373 505.669,585.0768 C502.5242,590.1888 499.4133,592.0372 494.7925,586.5984 C491.4064,593.0876 486.1768,591.5804 482.6775,586.7192 C478.1915,592.3031 473.3406,590.7987 470.3447,585.0916 C466.093,589.8158 462.1662,590.0458 459.1745,583.8077 C455.9709,588.8633 451.9128,588.2862 449.1392,583.3748 C445.0666,588.1332 439.233,587.8949 436.3911,581.9139 C433.4685,587.8761 427.9834,587.1898 425.2662,581.7141 C418.4853,578.3435 419.5987,573.2555 424.7289,569.3665 C418.13,566.7124 417.8156,561.7768 422.4554,557.0484 C418.4937,553.648 417.943,548.7641 423.9298,546.7942 C419.2457,542.2657 419.1193,536.2895 426.1999,533.8193 " fill="#D6EAF8" style="stroke: #2E86AB; stroke-width: 1.5;"/><text fill="#000000" font-family="sans-serif" font-size="14" lengthAdjust="spacingAndGlyphs" textLength="122" x="432" y="552.9482">Reducir consumo</text><text fill="#000000" font-family="sans-serif" font-size="14" lengthAdjust="spacingAndGlyphs" textLength="75" x="432" y="569.2451">energético</text><!--MD5=[6f87405281d5563a1d3129702a057d25]
entity T1--><rect fill="#FADBD8" filter="url(#f147o6eghd2ka4)" height="38.5938" style="stroke: #943126; stroke-width: 1.5;" width="149" x="604.5" y="536.9531"/><text fill="#000000" font-family="sans-serif" font-size="14" lengthAdjust="spacingAndGlyphs" textLength="129" x="614.5" y="552.9482">Gestionar accesos</text><text fill="#000000" font-family="sans-serif" font-size="14" lengthAdjust="spacingAndGlyphs" textLength="45" x="614.5" y="569.2451">y roles</text><!--MD5=[79c55d55872b2d2338533f8bcd4a021e]
entity T2--><rect fill="#FADBD8" filter="url(#f147o6eghd2ka4)" height="38.5938" style="stroke: #943126; stroke-width: 1.5;" width="117" x="193.5" y="536.9531"/><text fill="#000000" font-family="sans-serif" font-size="14" lengthAdjust="spacingAndGlyphs" textLength="97" x="203.5" y="552.9482">Recibir alertas</text><text fill="#000000" font-family="sans-serif" font-size="14" lengthAdjust="spacingAndGlyphs" textLength="84" x="203.5" y="569.2451">automáticas</text><!--MD5=[73b13c7c4742ec5c21dfa3227e9ce1ab]
link Docente to G1--><path d="M291.56,65.1031 C278.09,74.4731 253.81,93.7131 243,116.9531 C237.01,129.8331 235.21,145.4631 235.03,158.7331 " fill="none" id="Docente-&gt;G1" style="stroke: #444444; stroke-width: 1.0; stroke-dasharray: 7.0,7.0;"/><polygon fill="#444444" points="235.04,163.8831,239.0143,154.8717,235.0257,158.8831,231.0143,154.8946,235.04,163.8831" style="stroke: #444444; stroke-width: 1.0;"/><text fill="#000000" font-family="sans-serif" font-size="13" lengthAdjust="spacingAndGlyphs" textLength="76" x="244" y="130.02">depende de</text><!--MD5=[66efbb3499116f5dec677f2e565a09db]
link G1 to Infra--><path d="M237,213.1531 C237,254.8431 237,339.9631 237,372.7031 " fill="none" id="G1-&gt;Infra" style="stroke: #444444; stroke-width: 1.0; stroke-dasharray: 7.0,7.0;"/><polygon fill="#444444" points="237,377.8431,241,368.8431,237,372.8431,233,368.8431,237,377.8431" style="stroke: #444444; stroke-width: 1.0;"/><!--MD5=[291b82eae648f2952970eba322fc67fd]
link Docente to R1--><path d="M304.79,67.0731 C309.86,78.1731 318.93,98.7631 325,116.9531 C338.74,158.1131 350.52,206.9031 357.43,237.7631 " fill="none" id="Docente-&gt;R1" style="stroke: #444444; stroke-width: 1.0; stroke-dasharray: 7.0,7.0;"/><polygon fill="#444444" points="358.58,242.9431,360.5324,233.2897,357.4953,238.0622,352.7229,235.0252,358.58,242.9431" style="stroke: #444444; stroke-width: 1.0;"/><text fill="#000000" font-family="sans-serif" font-size="13" lengthAdjust="spacingAndGlyphs" textLength="76" x="330" y="130.02">depende de</text><!--MD5=[d92d32975cf373752bb3a5ada942fe83]
link R1 to SIGA--><path d="M364,296.1931 C364,374.1331 364,605.7931 364,663.7131 " fill="none" id="R1-&gt;SIGA" style="stroke: #444444; stroke-width: 1.0; stroke-dasharray: 7.0,7.0;"/><polygon fill="#444444" points="364,668.7631,368,659.7631,364,663.7631,360,659.7631,364,668.7631" style="stroke: #444444; stroke-width: 1.0;"/><!--MD5=[b15a6db2b12ea31494e807352755cf2f]
link Infra to R2--><path d="M229.52,396.0331 C208.08,419.2031 145.59,486.7331 109.19,526.0731 " fill="none" id="Infra-&gt;R2" style="stroke: #444444; stroke-width: 1.0; stroke-dasharray: 7.0,7.0;"/><polygon fill="#444444" points="105.75,529.7931,114.8,525.9076,109.1473,526.1246,108.9304,520.4719,105.75,529.7931" style="stroke: #444444; stroke-width: 1.0;"/><text fill="#000000" font-family="sans-serif" font-size="13" lengthAdjust="spacingAndGlyphs" textLength="76" x="152" y="491.02">depende de</text><!--MD5=[c3265933cd86f3920b369c480c8d745a]
link R2 to SIGA--><path d="M142.5,583.0931 C209.41,611.4431 312.69,655.2131 349.97,671.0131 " fill="none" id="R2-&gt;SIGA" style="stroke: #444444; stroke-width: 1.0; stroke-dasharray: 7.0,7.0;"/><polygon fill="#444444" points="354.59,672.9631,347.8744,665.7589,349.9891,671.0056,344.7424,673.1203,354.59,672.9631" style="stroke: #444444; stroke-width: 1.0;"/><!--MD5=[3dcc35de4872778bac62ce6742919b8d]
link Infra to T2--><path d="M237.72,396.0331 C239.9,420.3231 246.44,493.3731 249.86,531.5831 " fill="none" id="Infra-&gt;T2" style="stroke: #444444; stroke-width: 1.0; stroke-dasharray: 7.0,7.0;"/><polygon fill="#444444" points="250.34,536.9531,253.5015,527.6255,249.8835,531.974,245.5349,528.356,250.34,536.9531" style="stroke: #444444; stroke-width: 1.0;"/><text fill="#000000" font-family="sans-serif" font-size="13" lengthAdjust="spacingAndGlyphs" textLength="76" x="247" y="491.02">depende de</text><!--MD5=[1d913e27b5ef77869673c9d9c112e4f6]
link T2 to SIGA--><path d="M269.5,576.1231 C292.8,600.9831 333.34,644.2431 352.86,665.0731 " fill="none" id="T2-&gt;SIGA" style="stroke: #444444; stroke-width: 1.0; stroke-dasharray: 7.0,7.0;"/><polygon fill="#444444" points="356.48,668.9231,353.2621,659.6148,353.0679,665.2683,347.4144,665.0742,356.48,668.9231" style="stroke: #444444; stroke-width: 1.0;"/><!--MD5=[530e8598b6a76891a49bd753d79b584f]
link Autoridades to SG1--><path d="M493,396.0331 C493,417.9831 493,479.7531 493,519.6431 " fill="none" id="Autoridades-&gt;SG1" style="stroke: #444444; stroke-width: 1.0; stroke-dasharray: 7.0,7.0;"/><polygon fill="#444444" points="493,524.8831,497,515.8831,493,519.8831,489,515.8831,493,524.8831" style="stroke: #444444; stroke-width: 1.0;"/><text fill="#000000" font-family="sans-serif" font-size="13" lengthAdjust="spacingAndGlyphs" textLength="76" x="494" y="491.02">depende de</text><!--MD5=[e75d7af1d71d6b4d30387da160b81210]
link SG1 to SIGA--><path d="M459.78,588.2231 C432.71,613.3031 395.95,647.3531 376.8,665.1031 " fill="none" id="SG1-&gt;SIGA" style="stroke: #444444; stroke-width: 1.0; stroke-dasharray: 7.0,7.0;"/><polygon fill="#444444" points="372.76,668.8331,382.0812,665.6528,376.4285,665.4358,376.6455,659.7831,372.76,668.8331" style="stroke: #444444; stroke-width: 1.0;"/><!--MD5=[b022b49612aa980765856263d7d68b9a]
link TI to T1--><path d="M679,396.0331 C679,420.3231 679,493.3731 679,531.5831 " fill="none" id="TI-&gt;T1" style="stroke: #444444; stroke-width: 1.0; stroke-dasharray: 7.0,7.0;"/><polygon fill="#444444" points="679,536.9531,683,527.9531,679,531.9531,675,527.9531,679,536.9531" style="stroke: #444444; stroke-width: 1.0;"/><text fill="#000000" font-family="sans-serif" font-size="13" lengthAdjust="spacingAndGlyphs" textLength="76" x="680" y="491.02">depende de</text><!--MD5=[d57085154f881dc9661416664c150f91]
link T1 to SIGA--><path d="M630.13,575.9931 C556.56,603.9031 421.36,655.1931 377.87,671.6931 " fill="none" id="T1-&gt;SIGA" style="stroke: #444444; stroke-width: 1.0; stroke-dasharray: 7.0,7.0;"/><polygon fill="#444444" points="373.03,673.5331,382.8635,674.0821,377.7052,671.7603,380.027,666.6019,373.03,673.5331" style="stroke: #444444; stroke-width: 1.0;"/><rect fill="#DDDDDD" height="95.4844" rx="5" ry="5" style="stroke: #000000; stroke-width: 1.0;" width="335" x="431" y="724.9531"/><text fill="#000000" font-family="sans-serif" font-size="14" font-weight="bold" lengthAdjust="spacingAndGlyphs" textLength="49" x="442" y="744.9482">Forma</text><text fill="#000000" font-family="sans-serif" font-size="14" font-weight="bold" lengthAdjust="spacingAndGlyphs" textLength="194" x="561" y="744.9482">Tipo de dependencia (i*)</text><text fill="#000000" font-family="sans-serif" font-size="14" lengthAdjust="spacingAndGlyphs" textLength="111" x="441" y="761.2451">Óvalo (usecase)</text><text fill="#000000" font-family="sans-serif" font-size="14" lengthAdjust="spacingAndGlyphs" textLength="79" x="560" y="761.2451">Meta (Goal)</text><text fill="#000000" font-family="sans-serif" font-size="14" lengthAdjust="spacingAndGlyphs" textLength="79" x="441" y="777.542">Rectángulo</text><text fill="#000000" font-family="sans-serif" font-size="14" lengthAdjust="spacingAndGlyphs" textLength="139" x="560" y="777.542">Recurso (Resource)</text><text fill="#000000" font-family="sans-serif" font-size="14" lengthAdjust="spacingAndGlyphs" textLength="37" x="441" y="793.8389">Nube</text><text fill="#000000" font-family="sans-serif" font-size="14" lengthAdjust="spacingAndGlyphs" textLength="56" x="560" y="793.8389">Softgoal</text><text fill="#000000" font-family="sans-serif" font-size="14" lengthAdjust="spacingAndGlyphs" textLength="32" x="441" y="810.1357">Card</text><text fill="#000000" font-family="sans-serif" font-size="14" lengthAdjust="spacingAndGlyphs" textLength="86" x="560" y="810.1357">Tarea (Task)</text><line style="stroke: #000000; stroke-width: 1.0;" x1="437" x2="760" y1="731.9531" y2="731.9531"/><line style="stroke: #000000; stroke-width: 1.0;" x1="437" x2="760" y1="748.25" y2="748.25"/><line style="stroke: #000000; stroke-width: 1.0;" x1="437" x2="760" y1="764.5469" y2="764.5469"/><line style="stroke: #000000; stroke-width: 1.0;" x1="437" x2="760" y1="780.8438" y2="780.8438"/><line style="stroke: #000000; stroke-width: 1.0;" x1="437" x2="760" y1="797.1406" y2="797.1406"/><line style="stroke: #000000; stroke-width: 1.0;" x1="437" x2="760" y1="813.4375" y2="813.4375"/><line style="stroke: #000000; stroke-width: 1.0;" x1="437" x2="437" y1="731.9531" y2="813.4375"/><line style="stroke: #000000; stroke-width: 1.0;" x1="556" x2="556" y1="731.9531" y2="813.4375"/><line style="stroke: #000000; stroke-width: 1.0;" x1="760" x2="760" y1="731.9531" y2="813.4375"/><!--MD5=[aba12f8cfd57b49e408a656be0425b6c]
@startuml istar_sd
title Diagrama i* de Dependencia Estratégica (SD) · SIGA

skinparam backgroundColor white
skinparam ArrowColor #444444
skinparam circle {
  BackgroundColor #FFF3CD
  BorderColor #444444
  FontStyle bold
}
skinparam cloud {
  BackgroundColor #D6EAF8
  BorderColor #2E86AB
}
skinparam usecase {
  BackgroundColor #E8DAEF
  BorderColor #7D3C98
}
skinparam rectangle {
  BackgroundColor #D5F5E3
  BorderColor #1D6B36
}
skinparam card {
  BackgroundColor #FADBD8
  BorderColor #943126
}

circle "Docente" as Docente
circle "Personal de\nInfraestructura y\nMantenimiento" as Infra
circle "SIGA" as SIGA
circle "Autoridades de\nla Facultad" as Autoridades
circle "Personal de TI" as TI

usecase "Clima y equipos\noperativos" as G1
rectangle "Estado del aula\nen tiempo real" as R1
rectangle "Datos de sensores\nen tiempo real" as R2
cloud "Reducir consumo\nenergético" as SG1
card "Gestionar accesos\ny roles" as T1
card "Recibir alertas\nautomáticas" as T2

Docente ..> G1 : depende de
G1 ..> Infra

Docente ..> R1 : depende de
R1 ..> SIGA

Infra ..> R2 : depende de
R2 ..> SIGA

Infra ..> T2 : depende de
T2 ..> SIGA

Autoridades ..> SG1 : depende de
SG1 ..> SIGA

TI ..> T1 : depende de
T1 ..> SIGA

legend right
  |= Forma |= Tipo de dependencia (i*) |
  | Óvalo (usecase) | Meta (Goal) |
  | Rectángulo | Recurso (Resource) |
  | Nube | Softgoal |
  | Card | Tarea (Task) |
endlegend

@enduml

PlantUML version 1.2020.02(Sun Mar 01 10:22:07 UTC 2020)
(GPL source distribution)
Java Runtime: OpenJDK Runtime Environment
JVM: OpenJDK 64-Bit Server VM
Java Version: 21.0.11+10-1-24.04.2-Ubuntu
Operating System: Linux
Default Encoding: UTF-8
Language: en
Country: US
--></g></svg>